<svg xmlns="http://www.w3.org/2000/svg" width="17" height="16" aria-hidden="true" data-bbox="1.833 2.667 13.334 10.666" data-type="color" viewBox="1.833 2.667 13.334 10.666"><defs><style>#comp-lnoncoa62__bba60e13-4d91-4192-aa40-38924c3068b8 svg [data-color=&quot;1&quot;]{fill:#00aeef}</style></defs><path fill="#fff" d="m10.3 2.867 4.667 4.666a.645.645 0 0 1 0 .934L10.3 13.133a.644.644 0 0 1-.933 0 .644.644 0 0 1 0-.933L12.9 8.667H2.5c-.4 0-.667-.267-.667-.667s.267-.667.667-.667h10.4L9.367 3.8a.605.605 0 0 1-.2-.467c0-.2.066-.333.2-.466a.644.644 0 0 1 .933 0Z" data-color="1"/></svg>